<svg width="354" height="188" viewBox="0 0 354 188" fill="none" xmlns="http://www.w3.org/2000/svg">
<path fill-rule="evenodd" clip-rule="evenodd" d="M241.127 184.41C245.333 182.055 248.142 178.812 249.982 175.881L254.89 168.104L256.544 172.4C257.859 175.859 260.424 180.322 265.353 183.608C270.237 186.864 275.202 187.462 278.423 187.462H313.486C318.91 187.462 326.704 185.464 331.933 178.201C337.328 170.708 336.568 162.416 334.631 157.091L334.481 156.678L309.262 95.8544L349.754 34.3663L349.837 34.2359C351.852 31.0686 356.158 22.619 351.863 12.8569C347.048 1.91403 336.504 0 331.652 0H296.377C292.982 0 288.728 0.661507 284.457 3.05276C280.229 5.42091 277.411 8.68726 275.572 11.6306L270.964 19.0345L269.505 15.1728L269.489 15.1296C268.181 11.6609 265.616 7.16124 260.655 3.85389C255.771 0.597902 250.805 0 247.584 0H109.534C105.041 0 100.561 1.22512 96.5777 3.82298C93.0178 6.14469 90.7992 8.9621 89.6179 10.616L89.1545 11.2648L3.62652 154.024L3.43488 154.375C1.56422 157.805 -1.836 166.073 2.54455 175.199C7.45837 185.436 17.3951 187.462 22.5091 187.462H58.4173C68.1162 187.462 75.4478 181.995 79.33 175.305L83.9764 167.396H88.1453C88.5454 171.257 89.9386 175.458 93.0072 179.248C97.6812 185.022 104.339 187.462 110.379 187.462H229.208C232.603 187.462 236.857 186.801 241.127 184.41ZM110.379 167.66C109.699 167.66 109.122 167.455 108.689 167.086C108.044 166.538 107.718 165.628 107.844 164.492L109.745 148.861C109.745 148.016 109.534 147.594 108.689 147.594H73.6255C72.9919 147.594 72.3582 147.805 72.147 148.438L62.2194 165.336C61.3745 166.815 60.1071 167.66 58.4173 167.66H22.5091C20.3968 167.66 19.5519 166.181 20.8193 163.858L105.732 22.1258C106.788 20.6473 107.844 19.8024 109.534 19.8024H247.584C248.311 19.8024 248.921 19.9196 249.43 20.1877C250.104 20.5429 250.603 21.1629 250.964 22.1258L265.961 61.8361C266.172 62.8923 267.017 62.8923 267.651 61.8361L292.364 22.1258C293.42 20.436 294.687 19.8024 296.377 19.8024H331.652C333.764 19.8024 334.609 21.2809 333.13 23.6044L287.506 92.8862C287.295 93.5199 287.295 93.9424 287.295 94.576L316.021 163.858C316.866 166.181 315.599 167.66 313.486 167.66H278.423C276.733 167.66 275.677 167.026 275.044 165.336L259.835 125.837C259.413 124.781 258.568 124.781 258.146 125.837L233.221 165.336C232.801 166.008 232.348 166.513 231.848 166.878C231.781 166.926 231.713 166.973 231.645 167.016C230.937 167.469 230.136 167.66 229.208 167.66H110.379ZM159.805 55.0769C159.805 54.232 160.439 53.8096 161.073 53.8096H222.088L238.29 92.8862C238.502 93.5199 238.502 93.9424 238.079 94.576L212.346 133.653H151.356C150.511 133.653 150.089 133.23 150.3 132.385L152.835 110.84C153.046 109.995 153.68 109.573 154.314 109.573H192.545C194.446 109.573 195.925 108.306 196.136 106.405L199.516 78.9454C199.727 77.0444 198.671 75.777 196.77 75.777H158.538C157.693 75.777 157.271 75.3546 157.271 74.5097L159.805 55.0769ZM118.194 68.8066C118.616 67.7504 119.673 67.9617 119.461 69.229L113.758 115.91C113.758 116.499 113.348 116.882 112.885 117.061C112.683 117.138 112.472 117.177 112.28 117.177H91.5797C90.946 117.177 90.3123 116.755 90.7348 115.699L118.194 68.8066Z" fill="#50E854"/>
<path fill-rule="evenodd" clip-rule="evenodd" d="M108.689 167.086C109.122 167.455 109.699 167.66 110.379 167.66H229.208C230.136 167.66 230.937 167.469 231.645 167.016C231.713 166.973 231.781 166.926 231.848 166.878C232.348 166.513 232.801 166.008 233.221 165.336L258.146 125.837C258.568 124.781 259.413 124.781 259.835 125.837L275.044 165.336C275.677 167.026 276.733 167.66 278.423 167.66H313.486C315.599 167.66 316.866 166.181 316.021 163.858L287.295 94.576C287.295 93.9424 287.295 93.5199 287.506 92.8862L333.13 23.6044C334.609 21.2809 333.764 19.8024 331.652 19.8024H296.377C294.687 19.8024 293.42 20.436 292.364 22.1258L267.651 61.8361C267.017 62.8923 266.172 62.8923 265.961 61.8361L250.964 22.1258C250.603 21.1629 250.104 20.5429 249.43 20.1877C248.921 19.9196 248.311 19.8024 247.584 19.8024H109.534C107.844 19.8024 106.788 20.6473 105.732 22.1258L20.8193 163.858C19.5519 166.181 20.3968 167.66 22.5091 167.66H58.4173C60.1071 167.66 61.3745 166.815 62.2194 165.336L72.147 148.438C72.3582 147.805 72.9919 147.594 73.6255 147.594H108.689C109.534 147.594 109.745 148.016 109.745 148.861L107.844 164.492C107.718 165.628 108.044 166.538 108.689 167.086ZM161.073 53.8096C160.439 53.8096 159.805 54.232 159.805 55.0769L157.271 74.5097C157.271 75.3546 157.693 75.777 158.538 75.777H196.77C198.671 75.777 199.727 77.0444 199.516 78.9454L196.136 106.405C195.925 108.306 194.446 109.573 192.545 109.573H154.314C153.68 109.573 153.046 109.995 152.835 110.84L150.3 132.385C150.089 133.23 150.511 133.653 151.356 133.653H212.346L238.079 94.576C238.502 93.9424 238.502 93.5199 238.29 92.8862L222.088 53.8096H161.073ZM119.461 69.229C119.673 67.9617 118.616 67.7504 118.194 68.8066L90.7348 115.699C90.3123 116.755 90.946 117.177 91.5797 117.177H112.28C112.472 117.177 112.683 117.138 112.885 117.061C113.348 116.882 113.758 116.499 113.758 115.91L119.461 69.229Z" fill="#50E854"/>
<path d="M226.325 50.6416L229.704 22.9711C229.915 21.0701 228.859 19.8027 226.958 19.8027H109.517C107.827 19.8027 106.771 20.6476 105.715 22.1262L20.8025 163.858C19.5351 166.182 20.38 167.66 22.4923 167.66H58.4006C60.0904 167.66 61.3577 166.815 62.2026 165.337L72.1302 148.439C72.3414 147.805 72.9751 147.594 73.6088 147.594H108.672C109.517 147.594 109.728 148.016 109.728 148.861L107.827 164.492C107.616 166.393 108.672 167.66 110.362 167.66H208.793C210.694 167.66 211.961 166.393 212.172 164.492L215.763 136.821C215.974 134.92 214.918 133.653 213.017 133.653H151.34C150.495 133.653 150.072 133.231 150.283 132.386L152.818 110.841C153.029 109.996 153.663 109.573 154.297 109.573H192.528C194.43 109.573 195.908 108.306 196.119 106.405L199.499 78.9458C199.71 77.0447 198.654 75.7774 196.753 75.7774H158.521C157.676 75.7774 157.254 75.3549 157.254 74.51L159.789 55.0773C159.789 54.2324 160.422 53.81 161.056 53.81H222.734C224.635 53.81 226.113 52.5426 226.325 50.6416ZM90.718 115.699L118.177 68.807C118.6 67.7508 119.656 67.9621 119.445 69.2294L113.742 115.91C113.742 116.755 112.897 117.177 112.263 117.177H91.5629C90.9292 117.177 90.2955 116.755 90.718 115.699Z" fill="white"/>
<path d="M193.916 167.66H229.191C230.881 167.66 232.148 167.027 233.204 165.337L258.129 125.838C258.551 124.782 259.396 124.782 259.819 125.838L275.027 165.337C275.66 167.027 276.717 167.66 278.406 167.66H313.47C315.582 167.66 316.849 166.182 316.004 163.858L287.278 94.5764C287.278 93.9427 287.278 93.5203 287.489 92.8866L333.114 23.6048C334.592 21.2813 333.747 19.8027 331.635 19.8027H296.36C294.671 19.8027 293.403 20.4364 292.347 22.1262L267.634 61.8365C267 62.8927 266.155 62.8927 265.944 61.8365L250.947 22.1262C250.313 20.4364 249.257 19.8027 247.567 19.8027H212.082C209.758 19.8027 208.702 21.2813 209.547 23.6048L238.274 92.8866C238.485 93.5203 238.485 93.9427 238.062 94.5764L192.438 163.858C190.748 166.182 191.593 167.66 193.916 167.66Z" fill="white"/>
</svg>
